<svg version="1" xmlns="http://www.w3.org/2000/svg" width="682.667" height="682.667" viewBox="0 0 512.000000 512.000000"><path d="M231.9 82.4c-.3.3-3.2.8-6.5 1.1-3.2.2-5.9.5-5.9.5 0 .1-1.1.3-2.5.6-1.4.2-5.2.9-8.5 1.4-3.3.6-6.7 1.2-7.5 1.3-.8.2-2.1.6-2.7 1-.7.5-1.3.6-1.3.4 0-.3-1.7-.1-3.7.5-2.1.5-5.4 1.1-7.3 1.4-1.9.3-4.5 1.2-5.7 2-1.3.8-2.3 1.2-2.3.9 0-.3-1.6.1-3.5.9s-3.5 1.3-3.5 1.1c0-.2-1.2.2-2.7 1-1.5.8-3 1.2-3.5.9-.4-.3-.8-.1-.8.3 0 .5-2 1.5-4.5 2.2-2.5.7-4.5 1.8-4.5 2.4 0 .6-.3.8-.6.4-.4-.3-2.3.2-4.4 1.3-2.1 1.1-4 1.6-4.4 1.3-.3-.4-.6-.2-.6.4 0 .6-1.7 1.8-3.7 2.7-2.1.9-5.6 2.8-7.8 4.1-2.2 1.3-5.5 3.2-7.2 4.1-1.8 1-3.3 2.1-3.3 2.6 0 .4-.7.8-1.5.8s-1.5.4-1.5 1c0 .5-.5 1-1 1-1.1 0-1.4.2-6.5 4.6-3.6 3.1-16.1 14.6-19.2 17.7-1.3 1.2-2.8 3.6-3.4 5.4-.6 1.8-1.5 3.3-2 3.3s-.9.5-.9 1c0 .6-1.2 2.9-2.7 5.3-1.4 2.3-2.6 4.4-2.6 4.7 0 .3-.7 2.1-1.5 4-2.8 6.5-4.3 13.5-4.8 22-.3 4.7-.7 9-.9 9.7-.2.7-2.2 2.4-4.4 3.8-2.3 1.4-4 2.9-3.9 3.3.1.4-.2 1.8-.6 3.1-.6 1.8-.2 3 2.5 5.7 2.3 2.4 2.8 3.4 1.7 3.4-1.4 0-1.5.4-.5 3 .6 1.6 1.7 3 2.3 3 2.7 0-.5 13-3.9 16.1-2.9 2.7-.3 6.1 5.3 6.8.5 0-2 3.1-5.5 6.7-3.6 3.6-8.5 9.1-10.8 12.2-2.3 3.1-4.8 6.3-5.5 7-1.8 2-1.6 7.3.3 6.6.8-.4 1.5-1.1 1.5-1.7 0-.6.3-.7.7-.4.3.4 1.3.1 2.1-.5 1.6-1.3 1.3-1.3 9.7-3.1 6.2-1.4 9.3-1.4 18.5-.2 3 .4 6.1.8 6.8.8.6 0 1.2.4 1.2.9s.5.6 1.1.3c.6-.4-.1 1.5-1.4 4.2-2.5 4.8-2.7 7.5-1.3 16.6.3 1.6-.2 3.3-1.1 4.2-.8.8-1.2 1.5-.8 1.5.3 0-.1 1-1 2.3-.8 1.3-1.2 2.7-.8 3 .3.4.2.7-.4.7-1 0-4 10.7-3.5 12.3.1.5-.2.6-.8.2-.5-.3-1-.2-1 .2 0 .5-2.7 3.8-6 7.3-3.4 3.6-7.2 8.4-8.6 10.8-1.4 2.3-3 4.2-3.6 4.2-.5 0-.6.5-.3 1s.2 1-.4 1c-1 0-.9 2.5.2 3.6.3.3 2.2-.4 4.1-1.6 2-1.2 3.6-1.8 3.6-1.5 0 .4 1.1 0 2.5-.9s2.5-1.4 2.5-1c0 .4.6.1 1.4-.5 1.5-1.2 3.1 0 1.8 1.3-.4.4-.8 3.8-.8 7.4-.1 3.7-.2 7.1-.3 7.7-.1.5-1.8 2-3.9 3.3-4.9 3-5.1 5.8-.9 10.5 4.1 4.7 8.6 7 10.4 5.5.7-.6 1.3-.7 1.3-.4 0 .4.8.2 1.8-.3 1.1-.6 2.4-.6 3.3 0 .7.5 1 .9.4.9-1.7 0 13.8 14 16.3 14.6 1.2.4 2.2 1 2.2 1.4 0 .9 17.9 10 19.8 10 .6 0 1.2.5 1.2 1.1 0 .5.4.8 1 .4.5-.3 1.7-.2 2.7.3 4.2 2.2 12.7 5.2 14.6 5.2.4 0 2 .6 3.6 1.4 1.6.9 3.1 1.2 3.4.9.4-.3 1.3-.1 2.1.6.8.6 1.8 1.1 2.2 1 .5-.2 2.7.3 5 .9 2.3.7 5.3 1.3 6.8 1.4 1.4.1 2.6.5 2.6.8 0 .3 1.6.6 3.7.7 2 .1 3.9.6 4.2 1 .3.4 2 .9 3.6 1 3.2.1 10 1.1 10 1.3 0 .2 1.9.5 9.2 1.3 2.3.3 4.6.8 5.2 1.1.5.4 1.3.2 1.6-.4.5-.8 1.1-.7 2.1.1.8.6 2.3.9 3.4.6 1.1-.3 2.2-.1 2.5.3.6 1 71.5.7 75.5-.3 1.4-.3 5.7-.9 9.5-1.2 3.9-.4 8.1-.9 9.5-1.1 8.1-1.2 12.8-1.7 15-1.8 1.4-.1 2.7-.4 3-.8.3-.4 2.6-.9 5-1.2 2.5-.2 4.5-.5 4.5-.6 0-.2 1.3-.5 6.5-1.4 3.9-.8 6.4-1.3 6.8-1.6.1-.2.7-.4 1.2-.5.6-.1 1.1-.3 1.3-.4.1-.2 1.3-.4 2.7-.6 3.5-.6 5.2-1.1 7.2-2 1-.4 2.9-.8 4.3-.9 1.4 0 2.5-.4 2.5-.7 0-.7 3.4-1.8 7.4-2.6 1.1-.2 2.5-.8 3.1-1.3.7-.5 1.5-.7 1.8-.3.4.3.7.2.7-.3s2-1.6 4.5-2.3c2.5-.7 4.5-1.6 4.5-2.1 0-.4 1.8-1.3 4-2s4-1.7 4-2.2c0-.4.7-.8 1.5-.8s1.5-.3 1.5-.8c0-.4 1.5-1.5 3.3-2.5 3.2-1.8 12.6-9.7 11.4-9.7-.3 0 .5-1.1 1.9-2.5s3.6-5.1 5-8.1c2.5-5.6 3-10.1 3.5-30.7.2-5.8.4-6.7 1.8-6.2.9.4 2.3.8 3.1 1 .8.2 2.7.8 4.3 1.4 1.5.6 2.8.8 2.8.6.6-2.1.4-5.3-.4-6.9-.8-1.5-.6-1.8.7-1.3.9.4 1.6.2 1.6-.4 0-.6.7-.9 1.5-.6.8.4 1.7.2 2-.3.4-.6 1.4-1 2.3-1 2.2-.1 9.7-7 9.7-9 0-.9-1.6-1.9-4.3-2.5-2.4-.6-4.6-1.5-5-2-.4-.6-1.9-1.6-3.4-2.4-4.3-2.2-8.2-6.9-8.4-10.1-.3-3.3.5-3.6 5.2-2 1.6.5 4 1.1 5.4 1.2 1.4.2 3.1.7 3.8 1.1 1.9 1.2 3.5-.2 2.1-1.9-.7-.9-.8-1.4-.1-1.4.5 0 .8-.9.5-2-.3-1.1-.9-2-1.4-2-.5 0-.8-.3-.7-.8.3-1.1-3.5-8.5-5.4-10.6-1-1.1-1.8-2.4-1.8-2.8 0-.5-1.9-3.6-4.2-7-2.4-3.3-4.9-7.1-5.6-8.4-.7-1.3-1.7-2.4-2.1-2.4-1.3 0-3.3-5.3-2.2-5.9.5-.3.8-2.2.6-4.2l-.4-3.6 4.7.1c3.7.1 5.6-.6 8.9-2.9 2.4-1.7 4.3-3.7 4.3-4.6 0-.9-1.4-3.1-3.1-4.8-2.9-3.1-3-3.4-1.7-6.4.7-1.8 1.3-3.5 1.4-4 .1-.4.3-.8.4-1 .2-.1.4-1.8.5-3.8.1-1.9.5-4.1.9-4.7.4-.7.2-1.2-.3-1.2-.6 0-1-.3-.9-.8.6-2.1-5.7-9.5-9.3-10.7-1.3-.4-1.6-1.7-1.4-5.5.1-2.8.5-5.3.8-5.6.3-.3.2-1.6-.3-2.8-.4-1.2-.9-3.8-1.1-5.7-.2-1.9-.5-3.9-.8-4.4-.3-.6-.7-1.7-.9-2.5-.5-2.5-.8-3.3-2.5-7.4-.9-2.1-1.7-4.5-1.7-5.3 0-.8-.4-1.1-1-.8-.5.3-1-.1-1-.9s-1.5-3.6-3.2-6.2c-1.8-2.5-3.7-5.3-4.3-6.2-.5-.9-4.9-5.6-9.7-10.5-4.8-4.9-8.5-9.3-8.3-9.7.2-.4-.3-1.4-1.3-2.1-2.9-2.4-8.2-5.1-8.2-4.2 0 .4-.4.3-.8-.2-.9-1.4-13.2-9.5-14.2-9.5-.5 0-1-.4-1.2-.9-.3-1-25.8-14.4-25.8-13.5 0 .2-1.1-.3-2.5-1.2-1.4-.9-2.5-1.2-2.5-.8 0 .5-.4.4-.8-.3-.4-.6-1.6-1.3-2.7-1.5-1.1-.1-2.2-.6-2.5-.9-.3-.4-1.6-.9-3-1-1.4-.2-2.7-.7-3-1.1-.3-.4-1.5-.9-2.5-1.1-1.1-.1-2.4-.5-3-.9-1-.6-13.1-4.1-18-5.1-.5-.2-1.6-.7-2.4-1.1-1-.7-1.2-.5-.6.3.5.9.3 1-1.1.2-2.7-1.4-5.7-2.4-7.4-2.5-.8 0-1.8-.5-2.2-1.1-.5-.7-.8-.6-.8.1 0 1-3.6.7-13-1.2-3.8-.8-51.4-1.7-52.1-1z"/></svg>